<?xml version="1.0" encoding="utf-8" standalone="no"?>
<!DOCTYPE svg PUBLIC "-//W3C//DTD SVG 1.1//EN"
  "http://www.w3.org/Graphics/SVG/1.1/DTD/svg11.dtd">
<!-- Created with matplotlib (http://matplotlib.org/) -->
<svg height="252pt" version="1.1" viewBox="0 0 383 252" width="383pt" xmlns="http://www.w3.org/2000/svg" xmlns:xlink="http://www.w3.org/1999/xlink">
 <defs>
  <style type="text/css">
*{stroke-linecap:butt;stroke-linejoin:round;}
  </style>
 </defs>
 <g id="figure_1">
  <g id="patch_1">
   <path d="M -0 252.018125 
L 383.982812 252.018125 
L 383.982812 0 
L -0 0 
z
" style="fill:none;"/>
  </g>
  <g id="axes_1">
   <g id="patch_2">
    <path d="M 38.482813 228.14 
L 373.282813 228.14 
L 373.282813 10.7 
L 38.482813 10.7 
z
" style="fill:#ffffff;"/>
   </g>
   <g id="matplotlib.axis_1">
    <g id="xtick_1">
     <g id="line2d_1">
      <defs>
       <path d="M 0 0 
L 0 3.5 
" id="mb739525cb6" style="stroke:#000000;stroke-width:0.8;"/>
      </defs>
      <g>
       <use style="stroke:#000000;stroke-width:0.8;" x="53.700994" xlink:href="#mb739525cb6" y="228.14"/>
      </g>
     </g>
     <g id="text_1">
      <!-- 0.0 -->
      <defs>
       <path d="M 31.78125 66.40625 
Q 24.171875 66.40625 20.328125 58.90625 
Q 16.5 51.421875 16.5 36.375 
Q 16.5 21.390625 20.328125 13.890625 
Q 24.171875 6.390625 31.78125 6.390625 
Q 39.453125 6.390625 43.28125 13.890625 
Q 47.125 21.390625 47.125 36.375 
Q 47.125 51.421875 43.28125 58.90625 
Q 39.453125 66.40625 31.78125 66.40625 
M 31.78125 74.21875 
Q 44.046875 74.21875 50.515625 64.515625 
Q 56.984375 54.828125 56.984375 36.375 
Q 56.984375 17.96875 50.515625 8.265625 
Q 44.046875 -1.421875 31.78125 -1.421875 
Q 19.53125 -1.421875 13.0625 8.265625 
Q 6.59375 17.96875 6.59375 36.375 
Q 6.59375 54.828125 13.0625 64.515625 
Q 19.53125 74.21875 31.78125 74.21875 
" id="DejaVuSans-30"/>
       <path d="M 10.6875 12.40625 
L 21 12.40625 
L 21 0 
L 10.6875 0 
z
" id="DejaVuSans-2e"/>
      </defs>
      <g transform="translate(45.749432 242.738437)scale(0.1 -0.1)">
       <use xlink:href="#DejaVuSans-30"/>
       <use x="63.623047" xlink:href="#DejaVuSans-2e"/>
       <use x="95.410156" xlink:href="#DejaVuSans-30"/>
      </g>
     </g>
    </g>
    <g id="xtick_2">
     <g id="line2d_2">
      <g>
       <use style="stroke:#000000;stroke-width:0.8;" x="91.746449" xlink:href="#mb739525cb6" y="228.14"/>
      </g>
     </g>
     <g id="text_2">
      <!-- 2.5 -->
      <defs>
       <path d="M 19.1875 8.296875 
L 53.609375 8.296875 
L 53.609375 0 
L 7.328125 0 
L 7.328125 8.296875 
Q 12.9375 14.109375 22.625 23.890625 
Q 32.328125 33.6875 34.8125 36.53125 
Q 39.546875 41.84375 41.421875 45.53125 
Q 43.3125 49.21875 43.3125 52.78125 
Q 43.3125 58.59375 39.234375 62.25 
Q 35.15625 65.921875 28.609375 65.921875 
Q 23.96875 65.921875 18.8125 64.3125 
Q 13.671875 62.703125 7.8125 59.421875 
L 7.8125 69.390625 
Q 13.765625 71.78125 18.9375 73 
Q 24.125 74.21875 28.421875 74.21875 
Q 39.75 74.21875 46.484375 68.546875 
Q 53.21875 62.890625 53.21875 53.421875 
Q 53.21875 48.921875 51.53125 44.890625 
Q 49.859375 40.875 45.40625 35.40625 
Q 44.1875 33.984375 37.640625 27.21875 
Q 31.109375 20.453125 19.1875 8.296875 
" id="DejaVuSans-32"/>
       <path d="M 10.796875 72.90625 
L 49.515625 72.90625 
L 49.515625 64.59375 
L 19.828125 64.59375 
L 19.828125 46.734375 
Q 21.96875 47.46875 24.109375 47.828125 
Q 26.265625 48.1875 28.421875 48.1875 
Q 40.625 48.1875 47.75 41.5 
Q 54.890625 34.8125 54.890625 23.390625 
Q 54.890625 11.625 47.5625 5.09375 
Q 40.234375 -1.421875 26.90625 -1.421875 
Q 22.3125 -1.421875 17.546875 -0.640625 
Q 12.796875 0.140625 7.71875 1.703125 
L 7.71875 11.625 
Q 12.109375 9.234375 16.796875 8.0625 
Q 21.484375 6.890625 26.703125 6.890625 
Q 35.15625 6.890625 40.078125 11.328125 
Q 45.015625 15.765625 45.015625 23.390625 
Q 45.015625 31 40.078125 35.4375 
Q 35.15625 39.890625 26.703125 39.890625 
Q 22.75 39.890625 18.8125 39.015625 
Q 14.890625 38.140625 10.796875 36.28125 
z
" id="DejaVuSans-35"/>
      </defs>
      <g transform="translate(83.794886 242.738437)scale(0.1 -0.1)">
       <use xlink:href="#DejaVuSans-32"/>
       <use x="63.623047" xlink:href="#DejaVuSans-2e"/>
       <use x="95.410156" xlink:href="#DejaVuSans-35"/>
      </g>
     </g>
    </g>
    <g id="xtick_3">
     <g id="line2d_3">
      <g>
       <use style="stroke:#000000;stroke-width:0.8;" x="129.791903" xlink:href="#mb739525cb6" y="228.14"/>
      </g>
     </g>
     <g id="text_3">
      <!-- 5.0 -->
      <g transform="translate(121.840341 242.738437)scale(0.1 -0.1)">
       <use xlink:href="#DejaVuSans-35"/>
       <use x="63.623047" xlink:href="#DejaVuSans-2e"/>
       <use x="95.410156" xlink:href="#DejaVuSans-30"/>
      </g>
     </g>
    </g>
    <g id="xtick_4">
     <g id="line2d_4">
      <g>
       <use style="stroke:#000000;stroke-width:0.8;" x="167.837358" xlink:href="#mb739525cb6" y="228.14"/>
      </g>
     </g>
     <g id="text_4">
      <!-- 7.5 -->
      <defs>
       <path d="M 8.203125 72.90625 
L 55.078125 72.90625 
L 55.078125 68.703125 
L 28.609375 0 
L 18.3125 0 
L 43.21875 64.59375 
L 8.203125 64.59375 
z
" id="DejaVuSans-37"/>
      </defs>
      <g transform="translate(159.885795 242.738437)scale(0.1 -0.1)">
       <use xlink:href="#DejaVuSans-37"/>
       <use x="63.623047" xlink:href="#DejaVuSans-2e"/>
       <use x="95.410156" xlink:href="#DejaVuSans-35"/>
      </g>
     </g>
    </g>
    <g id="xtick_5">
     <g id="line2d_5">
      <g>
       <use style="stroke:#000000;stroke-width:0.8;" x="205.882812" xlink:href="#mb739525cb6" y="228.14"/>
      </g>
     </g>
     <g id="text_5">
      <!-- 10.0 -->
      <defs>
       <path d="M 12.40625 8.296875 
L 28.515625 8.296875 
L 28.515625 63.921875 
L 10.984375 60.40625 
L 10.984375 69.390625 
L 28.421875 72.90625 
L 38.28125 72.90625 
L 38.28125 8.296875 
L 54.390625 8.296875 
L 54.390625 0 
L 12.40625 0 
z
" id="DejaVuSans-31"/>
      </defs>
      <g transform="translate(194.75 242.738437)scale(0.1 -0.1)">
       <use xlink:href="#DejaVuSans-31"/>
       <use x="63.623047" xlink:href="#DejaVuSans-30"/>
       <use x="127.246094" xlink:href="#DejaVuSans-2e"/>
       <use x="159.033203" xlink:href="#DejaVuSans-30"/>
      </g>
     </g>
    </g>
    <g id="xtick_6">
     <g id="line2d_6">
      <g>
       <use style="stroke:#000000;stroke-width:0.8;" x="243.928267" xlink:href="#mb739525cb6" y="228.14"/>
      </g>
     </g>
     <g id="text_6">
      <!-- 12.5 -->
      <g transform="translate(232.795455 242.738437)scale(0.1 -0.1)">
       <use xlink:href="#DejaVuSans-31"/>
       <use x="63.623047" xlink:href="#DejaVuSans-32"/>
       <use x="127.246094" xlink:href="#DejaVuSans-2e"/>
       <use x="159.033203" xlink:href="#DejaVuSans-35"/>
      </g>
     </g>
    </g>
    <g id="xtick_7">
     <g id="line2d_7">
      <g>
       <use style="stroke:#000000;stroke-width:0.8;" x="281.973722" xlink:href="#mb739525cb6" y="228.14"/>
      </g>
     </g>
     <g id="text_7">
      <!-- 15.0 -->
      <g transform="translate(270.840909 242.738437)scale(0.1 -0.1)">
       <use xlink:href="#DejaVuSans-31"/>
       <use x="63.623047" xlink:href="#DejaVuSans-35"/>
       <use x="127.246094" xlink:href="#DejaVuSans-2e"/>
       <use x="159.033203" xlink:href="#DejaVuSans-30"/>
      </g>
     </g>
    </g>
    <g id="xtick_8">
     <g id="line2d_8">
      <g>
       <use style="stroke:#000000;stroke-width:0.8;" x="320.019176" xlink:href="#mb739525cb6" y="228.14"/>
      </g>
     </g>
     <g id="text_8">
      <!-- 17.5 -->
      <g transform="translate(308.886364 242.738437)scale(0.1 -0.1)">
       <use xlink:href="#DejaVuSans-31"/>
       <use x="63.623047" xlink:href="#DejaVuSans-37"/>
       <use x="127.246094" xlink:href="#DejaVuSans-2e"/>
       <use x="159.033203" xlink:href="#DejaVuSans-35"/>
      </g>
     </g>
    </g>
    <g id="xtick_9">
     <g id="line2d_9">
      <g>
       <use style="stroke:#000000;stroke-width:0.8;" x="358.064631" xlink:href="#mb739525cb6" y="228.14"/>
      </g>
     </g>
     <g id="text_9">
      <!-- 20.0 -->
      <g transform="translate(346.931818 242.738437)scale(0.1 -0.1)">
       <use xlink:href="#DejaVuSans-32"/>
       <use x="63.623047" xlink:href="#DejaVuSans-30"/>
       <use x="127.246094" xlink:href="#DejaVuSans-2e"/>
       <use x="159.033203" xlink:href="#DejaVuSans-30"/>
      </g>
     </g>
    </g>
   </g>
   <g id="matplotlib.axis_2">
    <g id="ytick_1">
     <g id="line2d_10">
      <defs>
       <path d="M 0 0 
L -3.5 0 
" id="m8edb0d60dd" style="stroke:#000000;stroke-width:0.8;"/>
      </defs>
      <g>
       <use style="stroke:#000000;stroke-width:0.8;" x="38.482813" xlink:href="#m8edb0d60dd" y="213.451708"/>
      </g>
     </g>
     <g id="text_10">
      <!-- −1.0 -->
      <defs>
       <path d="M 10.59375 35.5 
L 73.1875 35.5 
L 73.1875 27.203125 
L 10.59375 27.203125 
z
" id="DejaVuSans-2212"/>
      </defs>
      <g transform="translate(7.2 217.250927)scale(0.1 -0.1)">
       <use xlink:href="#DejaVuSans-2212"/>
       <use x="83.789062" xlink:href="#DejaVuSans-31"/>
       <use x="147.412109" xlink:href="#DejaVuSans-2e"/>
       <use x="179.199219" xlink:href="#DejaVuSans-30"/>
      </g>
     </g>
    </g>
    <g id="ytick_2">
     <g id="line2d_11">
      <g>
       <use style="stroke:#000000;stroke-width:0.8;" x="38.482813" xlink:href="#m8edb0d60dd" y="169.113634"/>
      </g>
     </g>
     <g id="text_11">
      <!-- −0.5 -->
      <g transform="translate(7.2 172.912852)scale(0.1 -0.1)">
       <use xlink:href="#DejaVuSans-2212"/>
       <use x="83.789062" xlink:href="#DejaVuSans-30"/>
       <use x="147.412109" xlink:href="#DejaVuSans-2e"/>
       <use x="179.199219" xlink:href="#DejaVuSans-35"/>
      </g>
     </g>
    </g>
    <g id="ytick_3">
     <g id="line2d_12">
      <g>
       <use style="stroke:#000000;stroke-width:0.8;" x="38.482813" xlink:href="#m8edb0d60dd" y="124.775559"/>
      </g>
     </g>
     <g id="text_12">
      <!-- 0.0 -->
      <g transform="translate(15.579688 128.574778)scale(0.1 -0.1)">
       <use xlink:href="#DejaVuSans-30"/>
       <use x="63.623047" xlink:href="#DejaVuSans-2e"/>
       <use x="95.410156" xlink:href="#DejaVuSans-30"/>
      </g>
     </g>
    </g>
    <g id="ytick_4">
     <g id="line2d_13">
      <g>
       <use style="stroke:#000000;stroke-width:0.8;" x="38.482813" xlink:href="#m8edb0d60dd" y="80.437485"/>
      </g>
     </g>
     <g id="text_13">
      <!-- 0.5 -->
      <g transform="translate(15.579688 84.236704)scale(0.1 -0.1)">
       <use xlink:href="#DejaVuSans-30"/>
       <use x="63.623047" xlink:href="#DejaVuSans-2e"/>
       <use x="95.410156" xlink:href="#DejaVuSans-35"/>
      </g>
     </g>
    </g>
    <g id="ytick_5">
     <g id="line2d_14">
      <g>
       <use style="stroke:#000000;stroke-width:0.8;" x="38.482813" xlink:href="#m8edb0d60dd" y="36.099411"/>
      </g>
     </g>
     <g id="text_14">
      <!-- 1.0 -->
      <g transform="translate(15.579688 39.898629)scale(0.1 -0.1)">
       <use xlink:href="#DejaVuSans-31"/>
       <use x="63.623047" xlink:href="#DejaVuSans-2e"/>
       <use x="95.410156" xlink:href="#DejaVuSans-30"/>
      </g>
     </g>
    </g>
   </g>
   <g id="line2d_15">
    <path clip-path="url(#pcc2e5132a5)" d="M 53.700994 192.191382 
L 85.418247 192.191382 
L 89.687877 190.961412 
L 132.384179 178.508649 
L 314.148435 157.322342 
L 331.226955 154.694523 
L 358.064631 148.535456 
L 358.064631 148.535456 
" style="fill:none;stroke:#1f77b4;stroke-linecap:square;stroke-width:1.5;"/>
   </g>
   <g id="line2d_16">
    <path clip-path="url(#pcc2e5132a5)" d="M 53.700994 124.775559 
L 65.28999 103.762515 
L 71.999409 92.069411 
L 77.488934 82.958527 
L 82.368511 75.306831 
L 86.638141 69.020484 
L 90.297824 63.974954 
L 93.957507 59.276291 
L 97.61719 54.951301 
L 100.666926 51.650455 
L 103.716662 48.639357 
L 106.766398 45.92994 
L 109.816134 43.532938 
L 112.86587 41.45785 
L 115.305658 40.035126 
L 117.745447 38.827322 
L 120.185236 37.837502 
L 122.625024 37.068176 
L 125.064813 36.521296 
L 127.504602 36.198247 
L 129.94439 36.09985 
L 132.384179 36.226354 
L 134.823968 36.577438 
L 137.263756 37.152212 
L 139.703545 37.949218 
L 142.143334 38.966434 
L 144.583122 40.201282 
L 147.022911 41.650628 
L 150.072647 43.758299 
L 153.122383 46.18699 
L 156.172118 48.927079 
L 159.221854 51.967707 
L 162.27159 55.296828 
L 165.931273 59.65393 
L 169.590956 64.382551 
L 173.250639 69.455713 
L 177.520269 75.77115 
L 181.789899 82.467047 
L 186.669477 90.518562 
L 192.768948 101.061451 
L 200.088314 114.193418 
L 220.826518 151.699694 
L 226.92599 162.097045 
L 231.805567 169.997057 
L 236.075197 176.536102 
L 240.344827 182.673289 
L 244.00451 187.577679 
L 247.664193 192.123784 
L 251.323876 196.285668 
L 254.373612 199.443204 
L 257.423348 202.304879 
L 260.473084 204.859354 
L 263.52282 207.096508 
L 266.572556 209.007475 
L 269.012344 210.296262 
L 271.452133 211.36815 
L 273.891922 212.22042 
L 276.33171 212.850911 
L 278.771499 213.258023 
L 281.211288 213.440724 
L 283.651076 213.398551 
L 286.090865 213.131611 
L 288.530654 212.64058 
L 290.970442 211.926705 
L 293.410231 210.991795 
L 295.85002 209.838221 
L 298.289808 208.46891 
L 300.729597 206.887335 
L 303.779333 204.618029 
L 306.829069 202.032358 
L 309.878804 199.140567 
L 312.92854 195.954114 
L 315.978276 192.485625 
L 319.637959 187.970578 
L 323.297642 183.095003 
L 327.567272 176.988383 
L 331.836902 170.476393 
L 336.71648 162.602734 
L 342.206004 153.290586 
L 348.915423 141.424715 
L 358.064631 124.775559 
L 358.064631 124.775559 
" style="fill:none;stroke:#ff7f0e;stroke-linecap:square;stroke-width:1.5;"/>
   </g>
   <g id="line2d_17">
    <path clip-path="url(#pcc2e5132a5)" d="M 53.700994 115.455794 
L 129.94439 20.583636 
L 132.384179 21.503484 
L 132.994126 22.09691 
L 262.302925 206.704358 
L 268.402397 211.211872 
L 286.700812 213.277693 
L 287.310759 213.114688 
L 292.190337 210.863631 
L 292.800284 210.38487 
L 358.064631 140.415157 
L 358.064631 140.415157 
" style="fill:none;stroke:#2ca02c;stroke-linecap:square;stroke-width:1.5;"/>
   </g>
   <g id="line2d_18">
    <path clip-path="url(#pcc2e5132a5)" d="M 53.700994 124.775559 
L 65.28999 103.762515 
L 71.999409 92.069411 
L 77.488934 82.958527 
L 82.368511 75.306831 
L 86.638141 69.020484 
L 90.297824 63.974954 
L 93.957507 59.276291 
L 97.61719 54.951301 
L 100.666926 51.650455 
L 103.716662 48.639357 
L 106.766398 45.92994 
L 109.816134 43.532938 
L 112.86587 41.45785 
L 115.305658 40.035126 
L 117.745447 38.827322 
L 120.185236 37.837502 
L 122.625024 37.068176 
L 125.064813 36.521296 
L 127.504602 36.198247 
L 129.94439 36.09985 
L 132.384179 36.226354 
L 134.823968 36.577438 
L 137.263756 37.152212 
L 139.703545 37.949218 
L 142.143334 38.966434 
L 144.583122 40.201282 
L 147.022911 41.650628 
L 150.072647 43.758299 
L 153.122383 46.18699 
L 156.172118 48.927079 
L 159.221854 51.967707 
L 162.27159 55.296828 
L 165.931273 59.65393 
L 169.590956 64.382551 
L 173.250639 69.455713 
L 177.520269 75.77115 
L 181.789899 82.467047 
L 186.669477 90.518562 
L 192.768948 101.061451 
L 200.088314 114.193418 
L 220.826518 151.699694 
L 226.92599 162.097045 
L 231.805567 169.997057 
L 236.075197 176.536102 
L 240.344827 182.673289 
L 244.00451 187.577679 
L 247.664193 192.123784 
L 251.323876 196.285668 
L 254.373612 199.443204 
L 257.423348 202.304879 
L 260.473084 204.859354 
L 263.52282 207.096508 
L 266.572556 209.007475 
L 269.012344 210.296262 
L 271.452133 211.36815 
L 273.891922 212.22042 
L 276.33171 212.850911 
L 278.771499 213.258023 
L 281.211288 213.440724 
L 283.651076 213.398551 
L 286.090865 213.131611 
L 288.530654 212.64058 
L 290.970442 211.926705 
L 293.410231 210.991795 
L 295.85002 209.838221 
L 298.289808 208.46891 
L 300.729597 206.887335 
L 303.779333 204.618029 
L 306.829069 202.032358 
L 309.878804 199.140567 
L 312.92854 195.954114 
L 315.978276 192.485625 
L 319.637959 187.970578 
L 323.297642 183.095003 
L 327.567272 176.988383 
L 331.836902 170.476393 
L 336.71648 162.602734 
L 342.206004 153.290586 
L 348.915423 141.424715 
L 358.064631 124.775559 
L 358.064631 124.775559 
" style="fill:none;stroke:#d62728;stroke-linecap:square;stroke-width:1.5;"/>
   </g>
   <g id="line2d_19">
    <path clip-path="url(#pcc2e5132a5)" d="M 53.700994 115.84945 
L 121.40513 28.472747 
L 122.015077 28.445262 
L 162.881537 53.239147 
L 164.101432 55.072849 
L 247.054246 190.933293 
L 269.622291 208.530089 
L 270.232239 208.736161 
L 289.140601 208.895402 
L 289.750548 208.606644 
L 312.92854 191.252686 
L 313.538487 190.493116 
L 358.064631 120.626619 
L 358.064631 120.626619 
" style="fill:none;stroke:#9467bd;stroke-linecap:square;stroke-width:1.5;"/>
   </g>
   <g id="line2d_20">
    <path clip-path="url(#pcc2e5132a5)" d="M 53.700994 124.775559 
L 65.28999 103.762515 
L 71.999409 92.069411 
L 77.488934 82.958527 
L 82.368511 75.306831 
L 86.638141 69.020484 
L 90.297824 63.974954 
L 93.957507 59.276291 
L 97.61719 54.951301 
L 100.666926 51.650455 
L 103.716662 48.639357 
L 106.766398 45.92994 
L 109.816134 43.532938 
L 112.86587 41.45785 
L 115.305658 40.035126 
L 117.745447 38.827322 
L 120.185236 37.837502 
L 122.625024 37.068176 
L 125.064813 36.521296 
L 127.504602 36.198247 
L 129.94439 36.09985 
L 132.384179 36.226354 
L 134.823968 36.577438 
L 137.263756 37.152212 
L 139.703545 37.949218 
L 142.143334 38.966434 
L 144.583122 40.201282 
L 147.022911 41.650628 
L 150.072647 43.758299 
L 153.122383 46.18699 
L 156.172118 48.927079 
L 159.221854 51.967707 
L 162.27159 55.296828 
L 165.931273 59.65393 
L 169.590956 64.382551 
L 173.250639 69.455713 
L 177.520269 75.77115 
L 181.789899 82.467047 
L 186.669477 90.518562 
L 192.768948 101.061451 
L 200.088314 114.193418 
L 220.826518 151.699694 
L 226.92599 162.097045 
L 231.805567 169.997057 
L 236.075197 176.536102 
L 240.344827 182.673289 
L 244.00451 187.577679 
L 247.664193 192.123784 
L 251.323876 196.285668 
L 254.373612 199.443204 
L 257.423348 202.304879 
L 260.473084 204.859354 
L 263.52282 207.096508 
L 266.572556 209.007475 
L 269.012344 210.296262 
L 271.452133 211.36815 
L 273.891922 212.22042 
L 276.33171 212.850911 
L 278.771499 213.258023 
L 281.211288 213.440724 
L 283.651076 213.398551 
L 286.090865 213.131611 
L 288.530654 212.64058 
L 290.970442 211.926705 
L 293.410231 210.991795 
L 295.85002 209.838221 
L 298.289808 208.46891 
L 300.729597 206.887335 
L 303.779333 204.618029 
L 306.829069 202.032358 
L 309.878804 199.140567 
L 312.92854 195.954114 
L 315.978276 192.485625 
L 319.637959 187.970578 
L 323.297642 183.095003 
L 327.567272 176.988383 
L 331.836902 170.476393 
L 336.71648 162.602734 
L 342.206004 153.290586 
L 348.915423 141.424715 
L 358.064631 124.775559 
L 358.064631 124.775559 
" style="fill:none;stroke:#8c564b;stroke-linecap:square;stroke-width:1.5;"/>
   </g>
   <g id="line2d_21">
    <path clip-path="url(#pcc2e5132a5)" d="M 53.700994 118.432233 
L 117.1355 31.405824 
L 117.745447 31.033164 
L 161.051696 51.839935 
L 161.661643 52.547337 
L 247.664193 197.231814 
L 248.274141 198.000317 
L 273.891922 218.202494 
L 275.111816 218.248478 
L 294.630125 217.994097 
L 295.240072 217.804305 
L 319.028012 199.044881 
L 320.247906 197.2336 
L 358.064631 137.774063 
L 358.064631 137.774063 
" style="fill:none;stroke:#e377c2;stroke-linecap:square;stroke-width:1.5;"/>
   </g>
   <g id="line2d_22">
    <path clip-path="url(#pcc2e5132a5)" d="M 53.700994 124.775559 
L 65.28999 103.762515 
L 71.999409 92.069411 
L 77.488934 82.958527 
L 82.368511 75.306831 
L 86.638141 69.020484 
L 90.297824 63.974954 
L 93.957507 59.276291 
L 97.61719 54.951301 
L 100.666926 51.650455 
L 103.716662 48.639357 
L 106.766398 45.92994 
L 109.816134 43.532938 
L 112.86587 41.45785 
L 115.305658 40.035126 
L 117.745447 38.827322 
L 120.185236 37.837502 
L 122.625024 37.068176 
L 125.064813 36.521296 
L 127.504602 36.198247 
L 129.94439 36.09985 
L 132.384179 36.226354 
L 134.823968 36.577438 
L 137.263756 37.152212 
L 139.703545 37.949218 
L 142.143334 38.966434 
L 144.583122 40.201282 
L 147.022911 41.650628 
L 150.072647 43.758299 
L 153.122383 46.18699 
L 156.172118 48.927079 
L 159.221854 51.967707 
L 162.27159 55.296828 
L 165.931273 59.65393 
L 169.590956 64.382551 
L 173.250639 69.455713 
L 177.520269 75.77115 
L 181.789899 82.467047 
L 186.669477 90.518562 
L 192.768948 101.061451 
L 200.088314 114.193418 
L 220.826518 151.699694 
L 226.92599 162.097045 
L 231.805567 169.997057 
L 236.075197 176.536102 
L 240.344827 182.673289 
L 244.00451 187.577679 
L 247.664193 192.123784 
L 251.323876 196.285668 
L 254.373612 199.443204 
L 257.423348 202.304879 
L 260.473084 204.859354 
L 263.52282 207.096508 
L 266.572556 209.007475 
L 269.012344 210.296262 
L 271.452133 211.36815 
L 273.891922 212.22042 
L 276.33171 212.850911 
L 278.771499 213.258023 
L 281.211288 213.440724 
L 283.651076 213.398551 
L 286.090865 213.131611 
L 288.530654 212.64058 
L 290.970442 211.926705 
L 293.410231 210.991795 
L 295.85002 209.838221 
L 298.289808 208.46891 
L 300.729597 206.887335 
L 303.779333 204.618029 
L 306.829069 202.032358 
L 309.878804 199.140567 
L 312.92854 195.954114 
L 315.978276 192.485625 
L 319.637959 187.970578 
L 323.297642 183.095003 
L 327.567272 176.988383 
L 331.836902 170.476393 
L 336.71648 162.602734 
L 342.206004 153.290586 
L 348.915423 141.424715 
L 358.064631 124.775559 
L 358.064631 124.775559 
" style="fill:none;stroke:#7f7f7f;stroke-linecap:square;stroke-width:1.5;"/>
   </g>
   <g id="line2d_23">
    <path clip-path="url(#pcc2e5132a5)" d="M 53.700994 124.775559 
L 65.28999 103.762515 
L 71.999409 92.069411 
L 77.488934 82.958527 
L 82.368511 75.306831 
L 86.638141 69.020484 
L 90.297824 63.974954 
L 93.957507 59.276291 
L 97.61719 54.951301 
L 100.666926 51.650455 
L 103.716662 48.639357 
L 106.766398 45.92994 
L 109.816134 43.532938 
L 112.86587 41.45785 
L 115.305658 40.035126 
L 117.745447 38.827322 
L 120.185236 37.837502 
L 122.625024 37.068176 
L 125.064813 36.521296 
L 127.504602 36.198247 
L 129.94439 36.09985 
L 132.384179 36.226354 
L 134.823968 36.577438 
L 137.263756 37.152212 
L 139.703545 37.949218 
L 142.143334 38.966434 
L 144.583122 40.201282 
L 147.022911 41.650628 
L 150.072647 43.758299 
L 153.122383 46.18699 
L 156.172118 48.927079 
L 159.221854 51.967707 
L 162.27159 55.296828 
L 165.931273 59.65393 
L 169.590956 64.382551 
L 173.250639 69.455713 
L 177.520269 75.77115 
L 181.789899 82.467047 
L 186.669477 90.518562 
L 192.768948 101.061451 
L 200.088314 114.193418 
L 220.826518 151.699694 
L 226.92599 162.097045 
L 231.805567 169.997057 
L 236.075197 176.536102 
L 240.344827 182.673289 
L 244.00451 187.577679 
L 247.664193 192.123784 
L 251.323876 196.285668 
L 254.373612 199.443204 
L 257.423348 202.304879 
L 260.473084 204.859354 
L 263.52282 207.096508 
L 266.572556 209.007475 
L 269.012344 210.296262 
L 271.452133 211.36815 
L 273.891922 212.22042 
L 276.33171 212.850911 
L 278.771499 213.258023 
L 281.211288 213.440724 
L 283.651076 213.398551 
L 286.090865 213.131611 
L 288.530654 212.64058 
L 290.970442 211.926705 
L 293.410231 210.991795 
L 295.85002 209.838221 
L 298.289808 208.46891 
L 300.729597 206.887335 
L 303.779333 204.618029 
L 306.829069 202.032358 
L 309.878804 199.140567 
L 312.92854 195.954114 
L 315.978276 192.485625 
L 319.637959 187.970578 
L 323.297642 183.095003 
L 327.567272 176.988383 
L 331.836902 170.476393 
L 336.71648 162.602734 
L 342.206004 153.290586 
L 348.915423 141.424715 
L 358.064631 124.775559 
L 358.064631 124.775559 
" style="fill:none;stroke:#bcbd22;stroke-linecap:square;stroke-width:1.5;"/>
   </g>
   <g id="patch_3">
    <path d="M 38.482813 228.14 
L 38.482813 10.7 
" style="fill:none;stroke:#000000;stroke-linecap:square;stroke-linejoin:miter;stroke-width:0.8;"/>
   </g>
   <g id="patch_4">
    <path d="M 373.282813 228.14 
L 373.282813 10.7 
" style="fill:none;stroke:#000000;stroke-linecap:square;stroke-linejoin:miter;stroke-width:0.8;"/>
   </g>
   <g id="patch_5">
    <path d="M 38.482813 228.14 
L 373.282813 228.14 
" style="fill:none;stroke:#000000;stroke-linecap:square;stroke-linejoin:miter;stroke-width:0.8;"/>
   </g>
   <g id="patch_6">
    <path d="M 38.482813 10.7 
L 373.282813 10.7 
" style="fill:none;stroke:#000000;stroke-linecap:square;stroke-linejoin:miter;stroke-width:0.8;"/>
   </g>
  </g>
 </g>
 <defs>
  <clipPath id="pcc2e5132a5">
   <rect height="217.44" width="334.8" x="38.482813" y="10.7"/>
  </clipPath>
 </defs>
</svg>
